<svg xmlns="http://www.w3.org/2000/svg" viewBox="0 0 64 64" role="img" aria-label="Forno de tijolos">
  <rect x="8" y="38" width="48" height="22" rx="2" fill="#B85C38"/>
  <path d="M8 38h48v4H8z" fill="#5C3D2E" opacity=".25"/>
  <rect x="12" y="42" width="8" height="4" fill="#5C3D2E" opacity=".35"/>
  <rect x="22" y="42" width="8" height="4" fill="#5C3D2E" opacity=".25"/>
  <rect x="34" y="42" width="8" height="4" fill="#5C3D2E" opacity=".35"/>
  <rect x="44" y="42" width="8" height="4" fill="#5C3D2E" opacity=".25"/>
  <rect x="12" y="48" width="8" height="4" fill="#5C3D2E" opacity=".25"/>
  <rect x="22" y="48" width="8" height="4" fill="#5C3D2E" opacity=".35"/>
  <rect x="34" y="48" width="8" height="4" fill="#5C3D2E" opacity=".25"/>
  <rect x="44" y="48" width="8" height="4" fill="#5C3D2E" opacity=".35"/>
  <rect x="12" y="54" width="8" height="4" fill="#5C3D2E" opacity=".35"/>
  <rect x="22" y="54" width="8" height="4" fill="#5C3D2E" opacity=".25"/>
  <rect x="34" y="54" width="8" height="4" fill="#5C3D2E" opacity=".35"/>
  <rect x="44" y="54" width="8" height="4" fill="#5C3D2E" opacity=".25"/>
  <path d="M10 38c0-18 11-28 22-28s22 10 22 28" fill="#C9A66B"/>
  <path d="M14 36c0-14 9-22 18-22s18 8 18 22" fill="#B85C38"/>
  <path d="M18 34c0-10 7-16 14-16s14 6 14 16" fill="#C9A66B" opacity=".85"/>
  <rect x="12" y="20" width="6" height="3" rx=".5" fill="#5C3D2E" opacity=".2"/>
  <rect x="20" y="16" width="6" height="3" rx=".5" fill="#5C3D2E" opacity=".18"/>
  <rect x="28" y="14" width="6" height="3" rx=".5" fill="#5C3D2E" opacity=".2"/>
  <rect x="36" y="16" width="6" height="3" rx=".5" fill="#5C3D2E" opacity=".18"/>
  <rect x="44" y="20" width="6" height="3" rx=".5" fill="#5C3D2E" opacity=".2"/>
  <path d="M22 38h20v18H22z" fill="#2E1F14"/>
  <path d="M22 38c0-8 4.5-12 10-12s10 4 10 12" fill="#2E1F14"/>
  <ellipse cx="32" cy="40" rx="7" ry="4" fill="#B85C38" opacity=".9"/>
  <ellipse cx="32" cy="41" rx="4.5" ry="2.5" fill="#C9A66B"/>
  <path d="M30 36c0-2 1-3 2-3s2 1 2 3" fill="#FBF6EE" opacity=".75"/>
</svg>
