<svg xmlns="http://www.w3.org/2000/svg" viewBox="0 0 52 52" role="img" aria-label="Padocafe">
  <circle cx="26" cy="26" r="24" fill="#FBF6EE" stroke="#B85C38" stroke-width="2"/>
  <path d="M14 30c0-6 5-11 12-11s12 5 12 11v2H14v-2z" fill="#C9A66B"/>
  <path d="M17 28c2-4 6-6 9-6s7 2 9 6" fill="none" stroke="#5C3D2E" stroke-width="1.5" stroke-linecap="round"/>
  <path d="M20 22c1.5-2 4-3 6-3s4.5 1 6 3" fill="none" stroke="#5C3D2E" stroke-width="1.2" stroke-linecap="round"/>
  <path d="M22 17c.8-1.2 2.2-2 4-2s3.2.8 4 2" fill="none" stroke="#B85C38" stroke-width="1.2" stroke-linecap="round" opacity=".85"/>
  <ellipse cx="20" cy="32" rx="2" ry="1.2" fill="#5C3D2E" opacity=".35"/>
  <ellipse cx="26" cy="33" rx="2.2" ry="1.3" fill="#5C3D2E" opacity=".35"/>
  <ellipse cx="32" cy="32" rx="2" ry="1.2" fill="#5C3D2E" opacity=".35"/>
</svg>
